<?xml version="1.0" encoding="UTF-8"?>
<svg height="16px" viewBox="0 0 16 16" width="16px" xmlns="http://www.w3.org/2000/svg">
    <g fill="#241f31">
        <path d="m 4 6 c -0.554688 0 -1 0.445312 -1 1 v 1 h 11 c 0.007812 0 0.011719 0.003906 0.019531 0.003906 v -1.003906 c 0 -0.554688 -0.445312 -1 -1 -1 z m 10.019531 8 c -0.007812 0 -0.011719 0 -0.019531 0 h -11 v 1 c 0 0.554688 0.445312 1 1 1 h 9.019531 c 0.554688 0 1 -0.445312 1 -1 z m 0 0"/>
        <path d="m 3 9 c -1.109375 0 -2 0.890625 -2 2 s 0.890625 2 2 2 h 11 c 1.109375 0 2 -0.890625 2 -2 s -0.890625 -2 -2 -2 z m 1 1 c 0.550781 0 1 0.449219 1 1 s -0.449219 1 -1 1 s -1 -0.449219 -1 -1 s 0.449219 -1 1 -1 z m 3 0 c 0.550781 0 1 0.449219 1 1 s -0.449219 1 -1 1 s -1 -0.449219 -1 -1 s 0.449219 -1 1 -1 z m 3 0 c 0.550781 0 1 0.449219 1 1 s -0.449219 1 -1 1 s -1 -0.449219 -1 -1 s 0.449219 -1 1 -1 z m 0 0"/>
        <path d="m 8.5 0.5 c -1.921875 0 -3.5 1.578125 -3.5 3.5 h 2 c 0 -0.839844 0.660156 -1.5 1.5 -1.5 s 1.5 0.660156 1.5 1.5 h 2 c 0 -1.921875 -1.578125 -3.5 -3.5 -3.5 z m 0 0"/>
        <path d="m 5 4 v 3 h 2 v -3 z m 0 0"/>
        <path d="m 10 4 v 1 h 2 v -1 z m 0 0"/>
    </g>
</svg>
