<svg width="512" height="512" xmlns="http://www.w3.org/2000/svg">

 <g>
  <title>background</title>
  <rect fill="none" id="canvas_background" height="402" width="582" y="-1" x="-1"/>
 </g>
 <g>
  <title>Layer 1</title>
  <path stroke-miterlimit="10" stroke-linejoin="round" stroke-linecap="round" stroke-width="20" stroke="#f95454" fill="none" id="svg_1" d="m344.2,369.2l-219.1,0c-61.9,0 -112.5,-50.6 -112.5,-112.5l0,0c0,-61.9 50.6,-112.5 112.5,-112.5l261,0c61.9,0 112.5,50.6 112.5,112.5l0,0c0,55.7 -41,102.3 -94.4,111" class="st0"/>
  <path stroke-miterlimit="10" stroke-linejoin="round" stroke-linecap="round" stroke-width="20" stroke="#f95454" fill="none" id="svg_2" d="m98.1,216.3c22.3,-7.4 46.3,4.6 53.8,26.9s-4.6,46.3 -26.9,53.8s-46.3,-4.6 -53.8,-26.9c-2.4,-7.3 -2.8,-14.7 -1.4,-21.7" class="st0"/>
  <line stroke-miterlimit="10" stroke-linejoin="round" stroke-linecap="round" stroke-width="20" stroke="#65b5f7" fill="none" id="svg_4" y2="284.7" y1="228.7" x2="236.5" x1="236.5" class="st1"/>
  <line stroke-miterlimit="10" stroke-linejoin="round" stroke-linecap="round" stroke-width="20" stroke="#65b5f7" fill="none" id="svg_5" y2="271" y1="242.3" x2="212.4" x1="260.5" class="st1"/>
  <line stroke-miterlimit="10" stroke-linejoin="round" stroke-linecap="round" stroke-width="20" stroke="#65b5f7" fill="none" id="svg_6" y2="271" y1="242.3" x2="260.5" x1="212.4" class="st1"/>
  <line stroke-miterlimit="10" stroke-linejoin="round" stroke-linecap="round" stroke-width="20" stroke="#65b5f7" fill="none" id="svg_8" y2="284.7" y1="228.7" x2="320.1" x1="320.1" class="st1"/>
  <line stroke-miterlimit="10" stroke-linejoin="round" stroke-linecap="round" stroke-width="20" stroke="#65b5f7" fill="none" id="svg_9" y2="271" y1="242.3" x2="296" x1="344.2" class="st1"/>
  <line stroke-miterlimit="10" stroke-linejoin="round" stroke-linecap="round" stroke-width="20" stroke="#65b5f7" fill="none" id="svg_10" y2="271" y1="242.3" x2="344.2" x1="296" class="st1"/>
  <line stroke-miterlimit="10" stroke-linejoin="round" stroke-linecap="round" stroke-width="20" stroke="#65b5f7" fill="none" id="svg_12" y2="284.7" y1="228.7" x2="403.7" x1="403.7" class="st1"/>
  <line stroke-miterlimit="10" stroke-linejoin="round" stroke-linecap="round" stroke-width="20" stroke="#65b5f7" fill="none" id="svg_13" y2="271" y1="242.3" x2="379.7" x1="427.8" class="st1"/>
  <line stroke-miterlimit="10" stroke-linejoin="round" stroke-linecap="round" stroke-width="20" stroke="#65b5f7" fill="none" id="svg_14" y2="271" y1="242.3" x2="427.8" x1="379.7" class="st1"/>
 </g>
</svg>